# xmcd
#
# Track frame offsets:
#	150
#	7730
#	33565
#	54970
#	79723
#	138065
#	159272
#	173585
#	179485
#	196626
#	220357
#	238436
#	262657
#
# Disc length: 3715 seconds
#
# Revision: 0
# Processed by: cddbd v1.5.1PL0 Copyright (c) Steve Scherf et al.
# Submitted via: audiograbber 1.83.01
#
DISCID=990e810d
DTITLE=Yo La Tengo - Live at Cotton Club cd2
DYEAR=1900
DGENRE=girlie
TTITLE0=(Ira Talks)
TTITLE1=You Can Have It All
TTITLE2=Big Day Coming
TTITLE3=Deeper Into Movies
TTITLE4=Blue Line Swinger
TTITLE5=Our Way to Fall
TTITLE6=Let's Get Rid of New York (Randoms
TTITLE7=(encore requests)
TTITLE8=Andalucia
TTITLE9=Autumn Sweater
TTITLE10=Detouring America with Horns
TTITLE11=Sugarcube
TTITLE12=Fog over Frisco
EXTD=
EXTT0=
EXTT1=
EXTT2=
EXTT3=
EXTT4=
EXTT5=
EXTT6=
EXTT7=
EXTT8=
EXTT9=
EXTT10=
EXTT11=
EXTT12=
PLAYORDER=
